<?xml version="1.0" encoding="utf-8"?>
<!-- Generator: Adobe Illustrator 18.1.1, SVG Export Plug-In . SVG Version: 6.00 Build 0)  -->
<!DOCTYPE svg PUBLIC "-//W3C//DTD SVG 1.1//EN" "http://www.w3.org/Graphics/SVG/1.1/DTD/svg11.dtd">
<svg version="1.1" id="Layer_1" xmlns="http://www.w3.org/2000/svg" xmlns:xlink="http://www.w3.org/1999/xlink" x="0px" y="0px"
	 viewBox="0 0 249 50" enable-background="new 0 0 249 50" xml:space="preserve">
<path fill="#FFFFFF" d="M0,47.4V50h249v-9.5C160.5,32.7,77.3,35,0,47.4z"/>
<rect x="-14.4" y="-19" fill="none" width="226.1" height="90.5"/>
<path fill="#308E92" d="M183,20h4v-4h-4V8h-7v8h-4v0.6c-3-1.9-6.9-2.2-8.4-2.2c-5.3,0-8,2.5-9.1,4.4c-0.8,1.4-1,2.8-1,3.5
	c-0.4-1.2-0.9-2.4-1.7-3.5c-3-4.2-7.7-4.4-9.3-4.4c-5.2,0-7.7,2.2-9.2,3.8c-0.1,0.1-0.3,0.3-0.3,0.4v-3.8c-1,0.1-2.2,0.2-4.2,1
	c-1.6,0.6-1.8,1.3-2.8,1.8V15h-7v8.8c0-2.6-1.8-5-3.9-6.7c-2.2-1.8-4.7-2.4-7.5-2.6c-6-0.4-9.1,2.1-10.8,4.1c0,0,0.1,0.1,0.1,0.1V16
	h-5.1c0-1,0-2.2,0.1-2.7c0-0.2,0.1-0.8,0.7-1.1C93.3,12,95,12,96,12V6.7c0,0-2.4-0.4-4-0.4c-2.2,0-5.1,0.7-6.3,2.9
	c-0.8,1.4-0.7,3.2-0.7,3.6V16h-4v3.2c0-0.8-1.1-1.5-1.9-2.1c-2.2-1.8-4.7-2.4-7.5-2.6c-6-0.4-9.2,2.1-10.8,4.1c0,0,0.1,0,0.1,0.1
	v-3.7c-1,0.1-2.2,0.2-4.2,1c-1.6,0.6-2.8,1.3-2.8,1.8V15h-7v7.9c-1-1.9-1.3-3.8-2.8-5.3c-2.6-2.8-5.8-3-7.2-3
	c-2.9,0-4.8,1.1-5.7,1.8c-0.5,0.4-0.6,0.5-1,0.9l0-2.4H24v28.3c2.4-0.3,4.8-0.3,7.1-1.3H31v-4.6l0.1,0.1c2.1,1.3,3.3,2,5.9,2
	c2.2,0,3.7-0.5,4.4-0.9c0.8-0.4,2.5-1.4,3.8-3.4C45.8,34.4,46,33,47,31v8h7V25.6c0-1.8,0.3-3,2.2-3.6c0.9-0.3,2-0.5,2.2-0.5l0.7-0.1
	c-1,2.4-1.1,4.7-1.1,5.7c0,5,2,7.9,3.4,9.3c1.2,1.2,2.6,2,4,2.5c4.2-0.4,8.5-0.7,12.8-1c0.5-0.3,0.9-0.6,1.2-0.8
	c1.6-1.4,4.2-4.5,4.2-9.9c0-2.5-0.6-5.1-1.9-7.1H85v17.4c2-0.1,5-0.3,7-0.4V20h3.7c-1.7,3-1.8,5.9-1.8,7.1c0,5,2,7.9,3.4,9.3
	c0.1,0.1,0.2,0.2,0.3,0.3c6.2-0.3,12.4-0.6,18.7-0.8c1-1.2,2.6-2.9,2.6-5.4v5.3c3-0.1,5-0.1,7-0.2V25.6c0-1.8,0.4-3,2.3-3.6
	c0.9-0.3,2-0.5,2.3-0.5l0.8-0.1c-1.1,2.6-1.2,5.2-1.2,6.2c0,3,0.8,5.8,2.4,8c13.3-0.2,26.8-0.1,40.6,0.2c0.1-0.1,0.2-0.3,0.3-0.4
	c0.4-0.6,1.1-2,1.1-4c0-4.4-3.3-6.2-7.1-7.2l-3.2-0.7c-0.8-0.1-2.5-0.4-3.2-0.9c-0.4-0.3-0.6-0.7-0.6-1.1c0-0.4,0.2-1.1,1.1-1.4
	c0.3-0.2,1.2-0.4,2.2-0.4c1.5,0,3.4,0.7,4.7,1.5c0.5,0.3,0.8,0.6,1.2,0.9l2.1-2v0h4v11.5c0,1.4-0.2,2.9,0.3,4.3
	c3.6,0.1,6.7,0.2,10.7,0.3v-2.7c-1,0-1.7,0-2.5,0c-0.1,0-1.1,0-1.5-0.8c-0.2-0.4,0-1,0-1.9V20z M40.6,27c0,2.6-0.6,4-1.1,5
	c-0.4,0.7-1.4,2.5-3.8,2.5c-1.1,0-1.9-0.4-2.2-0.6c-0.5-0.3-1-0.8-1.4-1.3c-1.3-2-1.2-4.9-1.2-5.4c0-5.2,2.4-7.6,5-7.6
	c0.2,0,0.6,0,1,0.1c0.8,0.2,1.6,0.7,2.1,1.4C40.7,23.2,40.6,26.3,40.6,27z M70.8,34.2c-2.7,0-4-1.5-4.6-2.3C65.8,31.1,65,29.4,65,27
	c0-3.5,1.5-5.5,2.8-6.3c1-0.5,2.2-0.6,2.5-0.7c1.9-0.1,3,0.5,3.6,0.9c1.4,1,2.5,2.8,2.5,6.4C76.5,30.9,74.7,34.2,70.8,34.2z
	 M106.9,34.2c-2.7,0-4-1.5-4.6-2.3c-0.5-0.7-1.2-2.5-1.2-4.8c0-3.5,1.5-5.5,2.8-6.3c1-0.5,2.2-0.6,2.5-0.7c1.9-0.1,3,0.5,3.6,0.9
	c1.4,1,2.5,2.8,2.5,6.4C112.5,30.9,110.7,34.2,106.9,34.2z M138,22.4c0.4-0.8,1.7-2.9,4.5-2.9c0.4,0,1.2,0,2.2,0.5
	c2.4,1.1,2.5,3.4,2.6,4.2l-9.8,0C137.7,23.3,137.8,22.8,138,22.4z M162.8,29.7c2.6,0.4,4.7,0.6,4.7,2.2c0,1.3-1.4,1.9-2.5,2.2
	c-0.8,0.2-1.4,0.2-1.7,0.2c-2,0-4.1-0.9-5.7-2.2c-0.5-0.3-0.9-0.7-1.3-1.1l-2.2,2l-5.3-2.7c-0.3,0.6-1.4,3-3.8,3.8
	c-1,0.4-1.9,0.4-2.3,0.4c-2.8,0-4.8-1.7-5.4-4.5c-0.1-0.6-0.1-1.2-0.1-1.4l17.1,0c0-0.5,0-1.7-0.2-3.3c0,0,0,0.1,0,0.1
	C155.5,27.8,157.8,28.9,162.8,29.7z"/>
<path fill="#308E92" d="M0,47.4C77.3,35,160.5,32.7,249,40.5v-1C160.5,31.7,77.3,34,0,46.4V47.4z"/>
</svg>
